<svg preserveAspectRatio="xMidYMid meet" width="40" height="40" overflow="visible" style="display: block;" viewBox="0 0 40 40" fill="none" xmlns="http://www.w3.org/2000/svg">
<g id="logo- GIF">
<g id="Vector">
<path fill-rule="evenodd" clip-rule="evenodd" d="M9.85471 5.79659C9.96706 5.71633 10.1232 5.74236 10.2035 5.85471L28.4041 31.3356C28.6895 31.7351 28.9139 32.0493 29.064 32.3061C29.214 32.5625 29.315 32.8018 29.306 33.0463C29.2922 33.4172 29.1144 33.7628 28.8206 33.9896C28.6269 34.1391 28.3734 34.1959 28.0776 34.2229C27.7813 34.25 27.3953 34.25 26.9044 34.25H9.75002V20C9.75002 19.8619 9.86195 19.75 10 19.75C10.1381 19.75 10.25 19.8619 10.25 20V33.75H26.8909C27.3982 33.75 27.7613 33.7498 28.0321 33.725C28.3061 33.7 28.4388 33.6526 28.5151 33.5937C28.6914 33.4577 28.7981 33.2503 28.8063 33.0278C28.8099 32.9315 28.7713 32.7961 28.6324 32.5585C28.4952 32.3238 28.2843 32.0281 27.9895 31.6153L9.79659 6.14533C9.71633 6.03298 9.74236 5.87684 9.85471 5.79659Z" fill="var(--fill-0, white)"/>
<path fill-rule="evenodd" clip-rule="evenodd" d="M24.8547 13.2035C24.9671 13.2837 25.1232 13.2577 25.2035 13.1453L28.4041 8.66442C28.6895 8.26491 28.9139 7.95077 29.064 7.6939C29.214 7.43751 29.315 7.1982 29.306 6.9537C29.2922 6.58282 29.1144 6.23723 28.8206 6.01047C28.6269 5.86098 28.3734 5.80414 28.0776 5.7771C27.7813 5.75002 27.3953 5.75002 26.9044 5.75002H10C9.86195 5.75002 9.75002 5.86195 9.75002 6.00002C9.75002 6.13809 9.86195 6.25002 10 6.25002H26.8909C27.3982 6.25002 27.7613 6.25027 28.0321 6.27503C28.3061 6.30008 28.4388 6.34742 28.5151 6.40629C28.6914 6.54235 28.7981 6.7497 28.8063 6.97223C28.8099 7.06851 28.7713 7.20398 28.6324 7.44153C28.4952 7.67628 28.2843 7.97189 27.9895 8.38469L24.7966 12.8547C24.7163 12.9671 24.7424 13.1232 24.8547 13.2035Z" fill="var(--fill-0, white)"/>
</g>
</g>
</svg>
