<svg preserveAspectRatio="xMidYMid meet" width="100%" height="100%" overflow="visible" style="display: block;" viewBox="0 0 120.011 110.723" fill="none" xmlns="http://www.w3.org/2000/svg">
<g id="Group">
<g id="Vector">
</g>
<path id="Vector_2" d="M32.9113 22.5227C32.9113 21.4727 33.2613 19.6227 33.2113 17.5227C33.1754 15.8497 33.0419 14.1802 32.8113 12.5227C32.4613 10.3227 33.1113 8.52272 32.0613 7.52272C31.4989 7.30715 30.8938 7.22651 30.2946 7.2873C29.6954 7.34809 29.1189 7.5486 28.6113 7.87272C27.5113 8.97272 27.6613 11.3227 27.4613 14.1227C27.3857 15.505 27.3857 16.8904 27.4613 18.2727V21.8227C27.4306 22.8346 27.6723 23.8362 28.1613 24.7227C28.4408 24.9973 28.7749 25.2102 29.1419 25.3476C29.5089 25.485 29.9007 25.5438 30.2918 25.5202C30.683 25.4966 31.0649 25.3912 31.4127 25.2108C31.7606 25.0304 32.0667 24.7789 32.3113 24.4727C32.6531 23.8751 32.8581 23.2091 32.9113 22.5227Z" fill="var(--fill-0, black)"/>
<path id="Vector_3" d="M120.011 47.4727C119.711 39.4727 119.111 31.4727 118.461 23.4227C118.396 19.6703 118.061 15.9274 117.461 12.2227C117.043 10.3985 116.223 8.69044 115.061 7.22272C114.365 6.40104 113.516 5.72189 112.561 5.22272C110.738 4.44968 108.846 3.84711 106.911 3.42272C104.261 2.72424 101.573 2.17339 98.8613 1.77272C94.8613 1.22272 90.8113 0.872717 86.7613 0.622717C78.6092 0.0234419 70.431 -0.143458 62.2613 0.122718C50.5613 0.472718 51.9613 0.722718 14.6113 4.07272C12.4791 4.22539 10.3585 4.50926 8.26126 4.92272C7.01664 5.45461 5.90635 6.25743 5.01126 7.27272C4.14628 8.23188 3.42234 9.30937 2.86126 10.4727C1.6854 13.1617 0.910475 16.0087 0.561261 18.9227C0.134359 23.0918 -0.0492859 27.2823 0.0112612 31.4727V51.4727C0.361261 61.4727 0.911261 71.4727 1.31126 81.1727C1.31126 86.1727 0.861261 92.4727 1.61126 98.0727C2.03049 100.66 2.87524 103.161 4.11126 105.473C4.8115 106.833 5.95934 107.91 7.36126 108.523C8.96303 109.166 10.6453 109.586 12.3613 109.773C14.8613 110.123 17.3613 110.323 19.8613 110.473C23.5113 110.473 27.2113 110.473 30.8113 110.723C39.1613 110.723 47.4613 110.723 55.8113 110.423C68.1613 109.923 80.5113 109.023 92.9113 108.223C98.0344 108.363 103.161 108.18 108.261 107.673C111.007 107.304 113.573 106.1 115.611 104.223C117.129 102.539 118.181 100.488 118.661 98.2727C119.225 95.4904 119.526 92.6613 119.561 89.8227L120.011 63.6227V47.4727ZM4.26126 19.3727C4.50291 16.8217 5.14407 14.3246 6.16126 11.9727C6.52944 11.1239 7.01777 10.3325 7.61126 9.62272C8.1818 8.97172 8.87942 8.44426 9.66126 8.07272C9.66126 8.07272 59.0113 3.92272 62.3613 3.82272C70.3513 3.65548 78.3447 3.88911 86.3113 4.52272C90.2113 4.82272 94.1613 5.22272 98.0113 5.82272C100.561 6.27272 103.011 6.77272 105.561 7.47272C106.99 7.80545 108.394 8.23989 109.761 8.77272C110.398 8.98902 110.967 9.36826 111.411 9.87272C112.398 11.3621 112.968 13.0886 113.061 14.8727C113.561 18.0727 113.411 21.5727 113.611 24.0227V24.3227H113.261C113.261 23.9727 111.361 24.3227 110.761 24.3227H105.761L90.2613 24.8227C85.9113 24.8227 79.0613 25.0727 71.0113 25.2727C66.0113 25.2727 60.4113 25.5727 54.8113 25.7727C54.8113 25.7727 17.4113 27.9727 13.3113 28.2227L4.01126 28.5227C3.92098 25.4704 4.00445 22.4155 4.26126 19.3727ZM114.711 63.4727L113.661 89.7727C113.674 92.2425 113.423 94.7065 112.911 97.1227C112.655 98.3863 112.068 99.5594 111.211 100.523C109.419 101.845 107.237 102.531 105.011 102.473C100.411 102.923 95.0113 102.473 92.2113 102.723C79.8613 103.473 67.5613 104.373 55.2613 104.873C47.1113 105.473 38.9613 105.473 30.7113 105.473H19.9113C17.5613 105.473 15.2113 105.223 12.9113 104.923C11.9193 104.734 10.948 104.45 10.0113 104.073C9.75883 104.056 9.51526 103.973 9.30474 103.832C9.09423 103.692 8.9241 103.499 8.81126 103.273C7.57525 100.708 6.87759 97.9173 6.76126 95.0727C6.36126 90.0727 6.76126 85.0727 6.46126 80.8227C5.91126 70.8227 5.16126 60.8227 4.61126 51.2227C4.23722 44.6959 4.03715 38.1602 4.01126 31.6227H13.3613H51.9113C58.6113 31.6227 65.2113 31.1727 71.2113 30.8727C79.2613 30.4227 86.2113 29.8727 90.5113 29.4727L105.811 28.1227H110.811H113.511C113.911 34.8727 114.311 41.5727 114.461 48.1227C115.011 52.9227 115.011 58.1727 114.711 63.4727Z" fill="var(--fill-0, black)"/>
<path id="Vector_4" d="M49.1113 18.6727C49.0111 20.5797 49.5963 22.4596 50.7613 23.9727C51.5113 24.7227 53.6613 24.8727 54.2613 23.9727C54.6772 22.443 54.8294 20.8536 54.7113 19.2727C54.8111 17.3907 54.8111 15.5047 54.7113 13.6227C54.3613 10.4727 55.2613 8.62272 53.1113 7.17272C52.5667 6.95348 51.9767 6.87076 51.3928 6.93177C50.8089 6.99277 50.2488 7.19565 49.7613 7.52272C48.2613 9.12272 49.1613 10.2227 49.0613 12.9727C48.9543 14.8718 48.971 16.7758 49.1113 18.6727Z" fill="var(--fill-0, black)"/>
<path id="Vector_5" d="M82.9613 53.7227C82.4247 53.4581 81.8345 53.3205 81.2363 53.3205C80.638 53.3205 80.0478 53.4581 79.5113 53.7227C77.4003 54.7298 75.4192 55.989 73.6113 57.4727C70.2072 60.1405 67.0753 63.1385 64.2613 66.4227C61.3473 69.7796 58.9539 73.555 57.1613 77.6227C56.2349 79.3845 55.5135 81.2467 55.0113 83.1727C54.9081 83.8837 54.9478 84.6081 55.1281 85.3035C55.3084 85.999 55.6256 86.6514 56.0613 87.2227C58.2613 90.1727 62.3113 90.3727 66.7613 87.5727C76.0006 80.7531 82.1803 70.5673 83.9613 59.2227C84.1476 57.9797 84.1476 56.7158 83.9613 55.4727C83.9252 55.1276 83.8176 54.7938 83.6454 54.4925C83.4733 54.1912 83.2403 53.929 82.9613 53.7227ZM68.6613 80.7727C66.8499 82.3666 64.7434 83.5897 62.4613 84.3727C61.6113 84.3727 60.8613 84.7727 60.5113 84.3727L62.4113 79.9727C63.6804 77.1628 65.2747 74.5114 67.1613 72.0727C70.1057 68.2068 73.4584 64.6697 77.1613 61.5227C77.1613 61.2727 78.7613 60.7227 79.9613 60.0727C79.6868 64.135 78.5344 68.0894 76.5835 71.6631C74.6326 75.2368 71.9297 78.3448 68.6613 80.7727Z" fill="var(--fill-0, black)"/>
<path id="Vector_6" d="M60.7113 53.9227C60.9348 53.9039 61.1525 53.841 61.3516 53.7376C61.5507 53.6342 61.7274 53.4925 61.8715 53.3205C62.0156 53.1485 62.1242 52.9497 62.1911 52.7356C62.258 52.5214 62.2819 52.2961 62.2613 52.0727C62.2613 50.4727 62.8113 48.9727 63.0113 47.0727C63.0609 46.407 63.0609 45.7385 63.0113 45.0727C63.0607 44.457 63.0607 43.8384 63.0113 43.2227C62.825 42.3112 62.5913 41.41 62.3113 40.5227V39.5727C61.3113 38.3727 60.5613 38.0227 59.9113 38.4227C59.2613 38.8227 59.1613 38.4227 58.9613 39.0227C58.4059 40.4334 57.971 41.8886 57.6613 43.3727C57.5612 44.3368 57.5612 45.3086 57.6613 46.2727C57.9502 48.261 58.4188 50.219 59.0613 52.1227C59.0478 52.3501 59.0801 52.5778 59.1564 52.7925C59.2326 53.0071 59.3512 53.2042 59.5051 53.3721C59.659 53.54 59.8451 53.6753 60.0523 53.7698C60.2595 53.8644 60.4836 53.9164 60.7113 53.9227Z" fill="var(--fill-0, black)"/>
<path id="Vector_7" d="M37.4613 58.6727C36.3113 57.9727 35.0113 57.5227 33.8113 56.9227C32.2796 56.0429 30.572 55.5135 28.8113 55.3727C27.3613 54.9227 25.9613 56.2727 28.0113 58.4727C28.8113 59.3227 31.1113 61.3227 31.4613 61.6227C32.5811 62.383 33.7504 63.0678 34.9613 63.6727C36.8113 64.5227 38.7613 64.8727 40.6613 65.6227C41.0393 65.8677 41.4991 65.9527 41.9397 65.859C42.3803 65.7652 42.7657 65.5004 43.0113 65.1227C43.2416 64.7277 43.313 64.2597 43.2108 63.814C43.1087 63.3682 42.8407 62.978 42.4613 62.7227C40.9236 61.2208 39.2498 59.8649 37.4613 58.6727Z" fill="var(--fill-0, black)"/>
<path id="Vector_8" d="M92.3613 67.2227C93.0613 67.5727 92.8113 67.7227 97.3613 64.9727C97.7613 64.7227 98.1613 64.5227 98.5613 64.2227C99.113 63.7783 99.6311 63.2937 100.111 62.7727C101.611 61.1227 102.661 59.3727 103.361 58.5727C103.55 58.4518 103.711 58.2939 103.837 58.1085C103.962 57.9231 104.049 57.7142 104.091 57.4943C104.133 57.2745 104.13 57.0484 104.082 56.8298C104.034 56.6112 103.942 56.4046 103.811 56.2227C103.686 56.0327 103.523 55.8699 103.333 55.744C103.144 55.618 102.93 55.5315 102.707 55.4895C102.483 55.4476 102.253 55.451 102.03 55.4996C101.808 55.5483 101.597 55.6412 101.411 55.7727C99.8681 56.3832 98.3934 57.1541 97.0113 58.0727C96.1234 58.646 95.3163 59.3354 94.6113 60.1227C93.5345 61.4274 92.6427 62.8744 91.9613 64.4227C91.7113 64.9227 91.5113 65.1727 91.5113 65.3727C91.5613 66.4727 91.8113 67.0727 92.3613 67.2227Z" fill="var(--fill-0, black)"/>
<path id="Vector_9" d="M106.611 85.4727C105.831 85.0823 105.009 84.7804 104.161 84.5727C102.822 84.1814 101.449 83.9136 100.061 83.7727C99.3968 83.6967 98.7258 83.6967 98.0613 83.7727L96.1113 84.3227C94.8717 84.4743 93.6694 84.8469 92.5613 85.4227C92.1113 85.4227 92.0613 85.9227 91.9113 86.0727C91.7613 86.2227 91.6113 87.8227 93.4113 88.3727C94.0613 88.3727 95.8113 88.8727 96.2113 88.9727C96.6113 89.0727 98.2613 89.3727 99.3613 89.4227C99.9589 89.4975 100.564 89.4975 101.161 89.4227C102.798 89.0319 104.48 88.8637 106.161 88.9227C106.617 88.9229 107.055 88.7454 107.381 88.428C107.708 88.1105 107.898 87.6781 107.911 87.2227C107.911 86.7727 107.511 86.1227 106.611 85.4727Z" fill="var(--fill-0, black)"/>
<path id="Vector_10" d="M34.6613 85.4727C33.5504 84.9037 32.3493 84.5315 31.1113 84.3727L29.1613 83.8227C28.4967 83.748 27.8258 83.748 27.1613 83.8227C25.773 83.9636 24.4006 84.2314 23.0613 84.6227C22.2136 84.8304 21.3918 85.1323 20.6113 85.5227C19.7113 86.1227 19.3113 86.7727 19.4113 87.2727C19.4113 88.8227 19.9113 88.7727 26.0613 89.4727C26.6589 89.5475 27.2636 89.5475 27.8613 89.4727C28.9113 89.4727 29.9113 89.1727 30.9613 89.0227C32.0113 88.8727 33.1613 88.6227 33.8113 88.4227C35.5613 87.8727 35.6113 86.5727 35.3113 86.1227C35.0113 85.6727 35.0113 85.4727 34.6613 85.4727Z" fill="var(--fill-0, black)"/>
</g>
</svg>
